<svg xmlns="http://www.w3.org/2000/svg" width="24" height="27" viewBox="0 0 24 27"><g><g><path fill="#ccc" d="M21.644 13.792L2.528 24.834c-.243.141-.39.152-.426.152L2.097 25c-.028-.03-.097-.166-.097-.467V2.453c0-.301.07-.436.108-.453.033 0 .177.011.425.152l19.11 11.043c.266.143.34.279.357.287-.017.03-.091.163-.356.31zm.907-2.527L3.84.42C1.933-.681 0 .494 0 2.646v21.688C0 25.91.952 27 2.312 27c.503 0 1.014-.144 1.52-.44l18.721-10.846c.92-.538 1.447-1.352 1.447-2.229s-.525-1.686-1.45-2.22z"/></g></g></svg>