<svg xmlns="http://www.w3.org/2000/svg" width="17" height="13" viewBox="0 0 17 13"><g><g transform="translate(0 125)"><path fill="#ccc" d="M9.35 125.813l-4.737 3.396a.379.379 0 0 1-.302.056H1.558a.707.707 0 0 0-.708.711v3.048c0 .385.328.698.732.698h2.81c.015 0 .029.006.044.008a.399.399 0 0 1 .072.013c.023.007.043.018.064.03.013.007.028.01.04.018l4.738 3.396zM9.836 138a.408.408 0 0 1-.228-.068l-5.364-3.646H1.48c-.817 0-1.481-.583-1.481-1.3v-2.972c0-.716.664-1.3 1.481-1.3h2.763l5.364-3.646a.416.416 0 0 1 .386-.037c.125.052.206.16.206.279v12.38c0 .12-.08.228-.206.28a.42.42 0 0 1-.158.03zm4.614-6.901c0 1.122-1.001 2.036-2.231 2.036-.177 0-.319-.13-.319-.29 0-.162.142-.292.319-.292.879 0 1.594-.652 1.594-1.454 0-.802-.715-1.455-1.594-1.455-.177 0-.319-.13-.319-.29 0-.162.142-.291.319-.291 1.23 0 2.231.913 2.231 2.036zm-1.217 5.26a.4.4 0 0 1-.116.016c-.147 0-.284-.079-.335-.205-.064-.158.033-.332.218-.387 1.97-.589 3.292-2.308 3.292-4.28 0-1.978-1.328-3.7-3.303-4.285-.185-.055-.283-.228-.22-.387.064-.16.265-.245.45-.189 2.262.67 3.781 2.623 3.781 4.86 0 2.232-1.514 4.183-3.767 4.856z"/></g></g></svg>